<?xml version="1.0" encoding="UTF-8"?>
<svg id="Layer_3" data-name="Layer 3" xmlns="http://www.w3.org/2000/svg" viewBox="0 0 125.49 125.49">
  <defs>
    <style>
      .cls-1 {
        fill: #f3d02a;
      }
    </style>
  </defs>
  <g id="Layer_1" data-name="Layer 1">
    <g>
      <path class="cls-1" d="M67.18,95.26c-1.54,1.54-2.55,3.6-3.89,5.36-.75,1.04-1.73,2.04-2.68,2.82-.39.4-1.46,1.02-1.16,1.53.26.34,1.41.6,2.87.83,1.41.22,3.13.39,4.55.5,2.92.22,5.81.27,8.77.13,1.36-.12,3.75-.11,3.88-1.38v-.03c.16-3.48-4.25-7.41-6.9-9.47-1.71-1.29-3.74-2.08-5.45-.29Z"/>
      <path class="cls-1" d="M44.52,51.69c-4.7-2.07-10.54-4.25-15.29-5.45-1.59-.38-3.78-.89-5.01-.04h-.02c-1.31.82-.52,1.71.52,2.4,1.42.99,3.89,2.14,5.74,2.97,2.57,1.13,5.1,2.11,7.71,3.2,1.55.57,3.28,1.66,4.51,1.62,1.04,0,2.2-.47,3.12-1.07,2.34-1.67,1.61-2.42-1.27-3.64Z"/>
      <path class="cls-1" d="M78.86,63.92c-2.25-.17-4.12,1.62-5.85,2.74-1.42.89-3.25,1.01-4.83.75-.82-.13-1.45-.3-1.57-.47-.11-.35.76-.43,1.73-.78.82-.27,1.69-.65,2.38-1.17,1.47-1.11,2.53-2.91,3.25-4.67,3.66-9.56-12.72-10.36-13.41.16v.04c-.35,3.28,3.75,5.32,2.55,6.25-1.48.75-3.64.57-5.11-.25-1.4-.74-2.43-1.97-3.77-2.47-1.73-.52-4.4-.81-6.01.05-2.01,1.36-.91,4.17.17,5.92.82,1.29,1.9,2.42,3.11,3.36,1.3,1.04,2.64,1.5,3.49,2.7.62.88.69,2.02.7,3.12-.03,6.97,2.47,14.2-1.09,20.61-.54,1.02-1.71,3.23.23,3.2.83,0,2.06-.51,2.89-1.01,6.34-3.53,9.17-11.05,10.52-17.68.24-1.17.51-2.32.75-3.5.36-1.53.32-3.21,1.18-4.48,1.07-1.52,3.27-1.49,4.88-2.15,1.8-.7,3.36-1.71,4.83-3.06,1.17-1.07,2.09-2.11,2.33-3.42.44-2.05-1.26-3.79-3.34-3.8Z"/>
      <path class="cls-1" d="M89.82,50.76c-1.77-1.23-5.15-2.08-8.92-2.79-5-.92-10.37-1.66-15.14-2.98-6.64-1.42-5.82-1.96-5.29-8.21v-.05c-.05-3.38,2.72-13.21.86-14.13-1.45-.21-2.19,2.84-2.4,3.96-.7,4.14-1.57,8.74-2.17,12.86-.18,1.13-.47,2.42-1.56,2.98-1.09.58-2.67.87-2.94,2.19-.43,2.57,2.32,3.6,4.48,3.88,1.82.29,3.74.44,5.57.68,1.82-.08,33.3,6.06,27.51,1.62Z"/>
      <path class="cls-1" d="M62.74,0C28.09,0,0,28.09,0,62.74s28.09,62.74,62.74,62.74,62.74-28.09,62.74-62.74S97.39,0,62.74,0ZM101.36,48.95c-1.02.73-2.13,1.28-2.93,1.76-.36.21-.81.55-.88.79-.22,1.23,5.03,1.32,6.02,3.07.88,1.24.31,3.33.06,5.18-.47,2.43-1.12,5.41-3.27,6.84-1.19.75-2.54,1.17-3.12,2.57-1.34,3.11-2.34,9.24-4.1,11.09-.76.83-1.49.48-1.58-.99-.09-4.29,3-11.15-.75-12.7-1.16-.53-2.6-.64-3.8-.14-3.72,1.68-3.09,7.91-11.05,10.81-2.37.79-4.57,2.31-3.92,5.09,1.64,5.87,9.92,5.69,11.19,14.32.26,1.07.62,2.13,1.27,2.96.88,1.32,3.16,2.15,2.97,3.28-4.1,4.83-32.43,6.76-37.56,3.57-1.19-.68-1.59-1.85-2.38-2.88-1.18-1.67-1.13-2.76.37-4.41,4.23-4.46,7.1-6.52,5.36-13.61-.49-2.14-.4-4.71-1.28-6.63-.82-1.75-2.48-2.84-3.81-4.18-1.47-1.44-2.49-3.14-3.12-5.06-1.36-4.68-.4-6.04-5.34-8.47-1.5-.81-3.29-1.77-4.82-2.36-1.21-.43-2.01-.74-2.84-.07-1.05,1.18-1.51,2.85-2.22,4.43-.25.63-.56,1.44-.75,1.96-.22.58-.3.93-.39.68-.42-2.44.33-5.34.38-7.71.22-5.39-4.71-4.37-7.8-7-1.91-1.51-2.47-3.58-.82-5.04,1.28-1.16,3.09-1.74,4.17-3.14,1.18-1.37,1.43-3.81,1.85-5.28.51-1.64,1.54-1.46,3.32-1.11,1.55.35,3.35.92,4.93,1.37,1.28.34,2.53.79,3.84.71,1.84-.11,3.5-1.99,4.98-3.18,3.44-2.98,6.52-6.25,9.62-9.55l.04-.04c1.72-1.76,3.46-3.49,5.09-5.35,1.91-2.04,3.28-3.45,6.16-2.96,3.65.45,7.38.67,11.03,1.27,1.03.17,2.09.36,3.06.66,1.11.31,1.97.93,1.18,2.2-1.09,1.68-2.45,3.48-2.45,5.57-.12,3.1,3.25,5.19,5.82,6.18,10.45,3.44,32.53,5.02,18.27,15.5Z"/>
    </g>
  </g>
</svg>