<?xml version="1.0" encoding="UTF-8"?>
<svg id="Layer_2" data-name="Layer 2" xmlns="http://www.w3.org/2000/svg" viewBox="0 0 446.63 199.38">
  <defs>
    <style>
      .cls-1 {
        letter-spacing: .25em;
      }

      .cls-2 {
        letter-spacing: .25em;
      }

      .cls-3 {
        letter-spacing: .21em;
      }

      .cls-4 {
        letter-spacing: .25em;
      }

      .cls-5, .cls-6, .cls-7 {
        fill: #9739b0;
      }

      .cls-6 {
        font-size: 26.08px;
      }

      .cls-6, .cls-7 {
        font-family: Termina-Bold, Termina;
        font-weight: 700;
      }

      .cls-7 {
        font-size: 58.25px;
      }

      .cls-8 {
        letter-spacing: -.02em;
      }

      .cls-9 {
        letter-spacing: -.02em;
      }

      .cls-10 {
        letter-spacing: -.03em;
      }
    </style>
  </defs>
  <g id="Layer_1" data-name="Layer 1">
    <g>
      <text class="cls-7" transform="translate(0 158.6)"><tspan x="0" y="0">SP</tspan><tspan class="cls-9" x="104.68" y="0">E</tspan><tspan x="154.43" y="0">CIALI</tspan><tspan class="cls-8" x="349.46" y="0">S</tspan><tspan class="cls-10" x="400.03" y="0">T</tspan></text>
      <text class="cls-6" transform="translate(133.02 188.43)"><tspan class="cls-2" x="0" y="0">M</tspan><tspan class="cls-3" x="36.05" y="0">O</tspan><tspan class="cls-4" x="67.61" y="0">VE</tspan><tspan class="cls-1" x="126.55" y="0">R</tspan><tspan class="cls-4" x="157.48" y="0">S</tspan></text>
      <g>
        <path class="cls-5" d="M226.65,71.44c-1.15,1.15-1.91,2.7-2.92,4.02-.56.78-1.3,1.53-2.01,2.12-.29.3-1.09.76-.87,1.15.2.26,1.05.45,2.15.63,1.05.16,2.34.29,3.41.37,2.19.17,4.36.2,6.57.09,1.02-.09,2.81-.09,2.91-1.03v-.02c.12-2.61-3.18-5.56-5.17-7.1-1.29-.97-2.8-1.56-4.08-.22Z"/>
        <path class="cls-5" d="M209.65,38.76c-3.52-1.55-7.91-3.19-11.47-4.09-1.19-.29-2.83-.67-3.76-.03h-.02c-.98.62-.39,1.29.39,1.8,1.06.74,2.91,1.61,4.31,2.23,1.92.85,3.82,1.59,5.78,2.4,1.16.43,2.46,1.24,3.38,1.22.78,0,1.65-.35,2.34-.8,1.75-1.25,1.21-1.81-.95-2.73Z"/>
        <path class="cls-5" d="M235.4,47.94c-1.69-.13-3.09,1.22-4.39,2.05-1.06.67-2.44.76-3.62.57-.62-.1-1.09-.22-1.18-.35-.08-.26.57-.32,1.3-.59.61-.2,1.27-.49,1.78-.87,1.1-.83,1.9-2.19,2.43-3.5,2.75-7.17-9.54-7.77-10.06.12v.03c-.27,2.46,2.81,3.99,1.91,4.69-1.11.57-2.73.43-3.83-.19-1.05-.56-1.82-1.48-2.83-1.85-1.3-.39-3.3-.6-4.51.04-1.51,1.02-.68,3.13.13,4.44.61.97,1.43,1.82,2.33,2.52.97.78,1.98,1.13,2.62,2.02.46.66.52,1.52.52,2.34-.02,5.23,1.85,10.65-.82,15.46-.41.77-1.28,2.42.17,2.4.62,0,1.55-.38,2.17-.76,4.76-2.64,6.88-8.29,7.89-13.26.18-.88.38-1.74.56-2.62.27-1.14.24-2.41.88-3.36.8-1.14,2.45-1.12,3.66-1.61,1.35-.52,2.52-1.28,3.63-2.29.88-.8,1.57-1.58,1.75-2.57.33-1.54-.94-2.84-2.5-2.85Z"/>
        <path class="cls-5" d="M243.62,38.07c-1.33-.92-3.86-1.56-6.69-2.09-3.75-.69-7.78-1.25-11.36-2.23-4.98-1.07-4.36-1.47-3.97-6.16v-.04c-.04-2.54,2.04-9.91.65-10.6-1.08-.16-1.64,2.13-1.8,2.97-.53,3.11-1.18,6.56-1.63,9.65-.14.85-.35,1.82-1.17,2.24-.82.43-2,.65-2.2,1.64-.32,1.93,1.74,2.7,3.36,2.91,1.37.21,2.8.33,4.18.51,1.36-.06,24.98,4.54,20.63,1.21Z"/>
        <path class="cls-5" d="M223.31,0c-25.99,0-47.06,21.07-47.06,47.06s21.07,47.06,47.06,47.06,47.06-21.07,47.06-47.06S249.3,0,223.31,0ZM252.27,36.71c-.76.55-1.6.96-2.2,1.32-.27.16-.61.41-.66.59-.16.92,3.77.99,4.51,2.3.66.93.23,2.5.04,3.88-.35,1.82-.84,4.06-2.46,5.13-.89.56-1.91.88-2.34,1.93-1,2.33-1.75,6.93-3.07,8.32-.57.62-1.12.36-1.19-.74-.07-3.22,2.25-8.37-.56-9.52-.87-.4-1.95-.48-2.85-.1-2.79,1.26-2.32,5.93-8.29,8.11-1.78.59-3.42,1.73-2.94,3.82,1.23,4.4,7.44,4.27,8.39,10.74.2.81.47,1.6.95,2.22.66.99,2.37,1.61,2.23,2.46-3.08,3.62-24.32,5.07-28.17,2.68-.89-.51-1.19-1.39-1.78-2.16-.88-1.25-.85-2.07.27-3.31,3.17-3.34,5.32-4.89,4.02-10.2-.37-1.6-.3-3.53-.96-4.97-.61-1.31-1.86-2.13-2.86-3.13-1.1-1.08-1.86-2.35-2.34-3.8-1.02-3.51-.3-4.53-4-6.35-1.12-.61-2.47-1.33-3.61-1.77-.91-.32-1.51-.56-2.13-.05-.79.88-1.13,2.14-1.67,3.32-.19.47-.42,1.08-.56,1.47-.16.44-.22.7-.29.51-.32-1.83.24-4,.28-5.78.16-4.04-3.53-3.28-5.85-5.25-1.43-1.13-1.85-2.69-.61-3.78.96-.87,2.32-1.31,3.13-2.36.89-1.03,1.08-2.86,1.39-3.96.38-1.23,1.16-1.1,2.49-.83,1.16.26,2.51.69,3.7,1.03.96.26,1.9.59,2.88.53,1.38-.08,2.62-1.49,3.73-2.39,2.58-2.24,4.89-4.69,7.22-7.16l.03-.03c1.29-1.32,2.59-2.62,3.82-4.01,1.44-1.53,2.46-2.59,4.62-2.22,2.74.34,5.54.5,8.28.95.77.13,1.57.27,2.3.49.84.23,1.48.69.89,1.65-.82,1.26-1.84,2.61-1.84,4.18-.09,2.33,2.44,3.89,4.36,4.64,7.83,2.58,24.39,3.76,13.7,11.63Z"/>
      </g>
    </g>
  </g>
</svg>